<?xml version="1.0" standalone="no"?>
<!DOCTYPE svg PUBLIC "-//W3C//DTD SVG 20010904//EN"
 "http://www.w3.org/TR/2001/REC-SVG-20010904/DTD/svg10.dtd">
<svg version="1.0" xmlns="http://www.w3.org/2000/svg"
 width="512.000000pt" height="512.000000pt" viewBox="0 0 512.000000 512.000000"
 preserveAspectRatio="xMidYMid meet">
<metadata>
Created by potrace 1.10, written by Peter Selinger 2001-2011
</metadata>
<g transform="translate(0.000000,512.000000) scale(0.100000,-0.100000)"
fill="#000000" stroke="none">
<path d="M1440 4889 c-61 -7 -91 -11 -165 -23 -68 -11 -218 -67 -320 -119
-247 -127 -455 -335 -582 -582 -52 -102 -108 -252 -119 -320 -3 -16 -7 -41 -9
-55 -23 -138 -28 -255 -15 -361 7 -63 14 -125 16 -139 1 -14 3 -25 4 -25 1 0
3 -14 6 -32 4 -36 74 -224 106 -287 26 -50 109 -189 118 -196 3 -3 19 -23 35
-45 51 -72 208 -216 305 -280 117 -78 292 -162 376 -180 10 -2 60 -13 109 -25
180 -41 398 -37 582 11 43 11 89 22 102 25 13 3 53 18 88 34 36 17 71 30 77
30 6 0 39 18 74 40 34 22 66 40 70 40 4 0 26 17 50 38 l43 37 206 -207 c142
-143 203 -210 197 -219 -13 -22 -15 -72 -4 -120 10 -42 46 -81 523 -556 460
-460 516 -513 556 -523 91 -24 156 7 282 137 122 124 142 172 115 265 -15 51
-39 77 -528 564 -282 281 -522 513 -533 516 -23 5 -124 3 -142 -3 -6 -2 -103
87 -215 198 l-203 202 37 43 c21 24 38 46 38 49 0 4 17 36 38 70 20 35 42 78
49 94 6 17 23 57 37 90 13 33 27 71 30 85 3 14 15 68 27 120 33 137 33 393 0
530 -12 52 -24 104 -26 114 -26 118 -161 372 -259 486 -44 51 -167 170 -212
206 -42 33 -164 109 -230 142 -63 32 -251 102 -287 106 -18 3 -32 5 -32 6 0 1
-12 3 -150 20 -90 11 -170 11 -265 -1z m277 -23 c142 -13 421 -97 474 -142 8
-8 19 -14 23 -14 15 0 152 -93 206 -139 30 -26 66 -56 78 -67 36 -29 143 -161
191 -234 84 -126 149 -281 186 -442 35 -152 37 -382 6 -533 -42 -198 -134
-411 -228 -529 -16 -19 -21 -36 -17 -52 5 -19 -11 -40 -100 -130 -87 -86 -111
-105 -129 -100 -16 4 -44 -10 -103 -49 -101 -68 -276 -148 -374 -170 -177 -41
-209 -46 -343 -46 -145 -1 -169 2 -292 27 -197 41 -414 146 -570 278 -262 220
-415 495 -466 838 -13 90 -13 292 1 373 6 33 13 78 16 100 18 121 113 332 218
485 62 90 213 243 303 306 82 56 224 134 246 134 9 0 17 4 17 9 0 5 10 11 23
14 12 3 54 16 92 30 39 13 90 28 115 32 200 31 278 35 427 21z m1142 -2380
l164 -165 -24 -20 c-13 -11 -20 -20 -16 -21 4 0 17 9 29 20 16 14 25 17 34 9
7 -6 23 -7 36 -3 34 11 90 6 129 -10 21 -9 223 -204 530 -513 473 -474 497
-500 505 -543 16 -95 8 -112 -126 -246 -86 -86 -113 -107 -152 -119 -42 -12
-54 -12 -95 0 -44 13 -93 60 -544 512 -274 274 -502 508 -508 520 -7 13 -11
61 -9 110 l2 88 80 85 80 85 -84 -82 c-47 -46 -89 -83 -94 -83 -4 0 -89 81
-188 180 l-180 180 27 22 c31 28 150 148 173 176 16 20 17 20 42 2 14 -11 99
-93 189 -184z"/>
<path d="M1415 4564 c-38 -6 -86 -15 -105 -19 -66 -12 -296 -120 -330 -155 -3
-3 -21 -17 -41 -32 -56 -42 -175 -168 -215 -228 -83 -125 -155 -306 -169 -425
-12 -111 -15 -240 -5 -290 5 -27 11 -63 14 -80 45 -276 274 -573 551 -713 64
-33 206 -82 236 -82 10 0 20 -4 23 -8 7 -11 104 -17 242 -15 193 4 405 76 564
194 60 43 230 210 230 224 0 4 11 21 24 38 51 68 118 224 152 357 25 98 22
341 -6 452 -80 313 -279 559 -564 696 -80 38 -140 59 -208 73 -166 33 -265 36
-393 13z m273 -14 c167 -21 343 -89 477 -185 88 -62 223 -209 277 -301 48 -81
100 -209 119 -293 38 -163 27 -376 -27 -537 -59 -179 -136 -297 -279 -432
-336 -317 -864 -355 -1254 -89 -67 45 -196 173 -246 242 -171 239 -232 551
-161 827 77 305 263 534 544 673 170 84 366 118 550 95z"/>
<path d="M1360 4294 c-46 -14 -90 -30 -97 -36 -7 -6 -13 -26 -13 -44 0 -25 7
-38 26 -50 24 -16 29 -16 87 4 34 12 86 25 116 29 41 6 58 14 74 34 17 24 18
30 6 55 -13 26 -20 29 -64 31 -30 2 -83 -8 -135 -23z m175 -13 c10 -32 -5 -49
-48 -57 -23 -4 -44 -8 -47 -9 -3 -1 -18 -5 -35 -9 -16 -4 -42 -12 -57 -18 -41
-15 -80 -3 -76 24 5 38 122 82 230 87 18 1 29 -5 33 -18z"/>
<path d="M1720 4280 c-44 -44 -20 -80 75 -115 183 -67 325 -205 394 -385 16
-41 32 -100 36 -130 9 -71 27 -100 64 -100 48 0 65 30 58 104 -7 75 -59 219
-108 302 -78 131 -244 265 -395 320 -79 29 -98 30 -124 4z m184 -54 c103 -47
286 -204 286 -245 0 -6 4 -11 10 -11 20 0 105 -193 116 -263 3 -23 7 -60 7
-82 1 -38 -1 -40 -31 -43 -18 -2 -32 -2 -32 1 0 25 -26 135 -42 182 -65 182
-172 301 -354 398 -29 15 -60 27 -71 27 -27 0 -63 28 -63 50 0 45 58 40 174
-14z"/>
<path d="M2275 1349 c-4 -6 -5 -12 -2 -15 2 -3 7 2 10 11 7 17 1 20 -8 4z"/>
</g>
</svg>
