<?xml version="1.0" standalone="no"?>
<!DOCTYPE svg PUBLIC "-//W3C//DTD SVG 20010904//EN"
 "http://www.w3.org/TR/2001/REC-SVG-20010904/DTD/svg10.dtd">
<svg version="1.0" xmlns="http://www.w3.org/2000/svg"
 width="50.000000pt" height="50.000000pt" viewBox="0 0 50.000000 50.000000"
 preserveAspectRatio="xMidYMid meet">
<metadata>
Created by potrace 1.10, written by Peter Selinger 2001-2011
</metadata>
<g transform="translate(0.000000,50.000000) scale(0.100000,-0.100000)"
fill="#000000" stroke="none">
<path d="M223 460 c-6 -23 -8 -23 -32 -10 -14 7 -23 5 -35 -9 -11 -13 -14 -21
-7 -26 18 -11 12 -35 -9 -35 -15 0 -20 -7 -20 -26 0 -17 6 -28 20 -31 23 -6
23 -8 10 -32 -7 -14 -5 -23 9 -35 13 -11 21 -14 26 -7 10 18 32 12 38 -9 3
-12 14 -20 27 -20 13 0 24 8 27 20 6 22 23 26 39 10 7 -7 16 -4 28 9 11 12 14
21 7 26 -18 10 -12 32 9 38 12 3 20 14 20 27 0 13 -8 24 -20 27 -23 6 -23 8
-10 32 7 14 5 23 -9 35 -13 11 -21 14 -26 7 -10 -18 -32 -12 -38 9 -3 12 -14
20 -27 20 -13 0 -24 -8 -27 -20z m37 -15 c0 -21 34 -37 48 -23 7 7 15 9 19 5
4 -4 2 -12 -5 -19 -14 -14 2 -48 23 -48 8 0 15 -4 15 -10 0 -5 -7 -10 -15 -10
-21 0 -37 -34 -23 -48 7 -7 9 -15 5 -19 -4 -4 -12 -2 -19 5 -14 14 -48 -2 -48
-23 0 -8 -4 -15 -10 -15 -5 0 -10 7 -10 15 0 21 -34 37 -48 23 -7 -7 -15 -9
-19 -5 -4 4 -2 12 5 19 14 14 -2 48 -23 48 -8 0 -15 5 -15 10 0 6 7 10 15 10
21 0 37 34 23 48 -7 7 -9 15 -5 19 4 4 12 2 19 -5 14 -14 48 2 48 23 0 8 5 15
10 15 6 0 10 -7 10 -15z"/>
<path d="M216 384 c-31 -30 -9 -84 34 -84 24 0 50 26 50 50 0 24 -26 50 -50
50 -10 0 -26 -7 -34 -16z m54 -19 c18 -21 5 -47 -22 -43 -26 3 -37 36 -16 49
18 12 24 11 38 -6z"/>
<path d="M67 198 c-26 -11 -47 -24 -47 -29 0 -13 13 -11 61 11 57 25 80 25
114 -2 16 -12 47 -23 76 -26 35 -3 49 -9 49 -20 0 -12 -12 -14 -75 -9 -41 3
-75 2 -75 -3 0 -13 29 -20 88 -20 50 0 65 5 117 40 59 39 85 49 85 31 0 -9
-139 -102 -183 -122 -20 -9 -34 -6 -87 21 -55 28 -66 30 -91 20 -16 -7 -29
-19 -29 -26 0 -18 10 -17 34 1 16 12 25 10 81 -17 42 -21 70 -29 86 -25 13 4
66 34 117 67 77 50 93 64 90 82 -3 19 -13 25 -75 36 -70 14 -73 14 -110 -9
-42 -26 -56 -26 -91 2 -32 24 -75 24 -135 -3z m277 -13 c-10 -8 -28 -14 -39
-14 -18 0 -17 1 5 14 34 20 60 20 34 0z m65 2 c-38 -30 -69 -45 -74 -38 -6 11
40 40 64 41 8 0 12 -1 10 -3z"/>
</g>
</svg>
