<?xml version="1.0" standalone="no"?>
<!DOCTYPE svg PUBLIC "-//W3C//DTD SVG 20010904//EN"
 "http://www.w3.org/TR/2001/REC-SVG-20010904/DTD/svg10.dtd">
<svg version="1.0" xmlns="http://www.w3.org/2000/svg"
 width="32.000000pt" height="32.000000pt" viewBox="0 0 32.000000 32.000000"
 preserveAspectRatio="xMidYMid meet">
<metadata>
Created by potrace 1.10, written by Peter Selinger 2001-2011
</metadata>
<g transform="translate(0.000000,32.000000) scale(0.100000,-0.100000)"
fill="#000000" stroke="none">
<path d="M93 270 c-85 -51 -81 -179 6 -225 116 -60 239 71 171 182 -37 61
-116 81 -177 43z m117 -15 c32 -17 60 -61 60 -95 0 -53 -57 -110 -110 -110
-53 0 -110 57 -110 110 0 33 28 78 58 94 35 20 66 20 102 1z"/>
<path d="M126 224 c-18 -18 -21 -45 -6 -60 7 -7 4 -16 -10 -29 -19 -17 -27
-45 -14 -45 3 0 15 11 26 25 11 14 28 25 38 25 10 0 27 -11 38 -25 11 -14 23
-25 26 -25 13 0 5 28 -14 45 -14 13 -17 22 -10 29 25 25 -2 76 -40 76 -10 0
-26 -7 -34 -16z m59 -24 c8 -26 -1 -40 -26 -40 -22 0 -34 22 -25 45 8 22 44
18 51 -5z"/>
</g>
</svg>
